<?xml version="1.0" encoding="UTF-8" standalone="no"?>
<svg
   xmlns:dc="http://purl.org/dc/elements/1.1/"
   xmlns:cc="http://creativecommons.org/ns#"
   xmlns:rdf="http://www.w3.org/1999/02/22-rdf-syntax-ns#"
   xmlns:svg="http://www.w3.org/2000/svg"
   xmlns="http://www.w3.org/2000/svg"
   xmlns:sodipodi="http://sodipodi.sourceforge.net/DTD/sodipodi-0.dtd"
   xmlns:inkscape="http://www.inkscape.org/namespaces/inkscape"
   width="76px"
   height="76px"
   viewBox="0 0 76 76"
   version="1.1"
   id="svg2"
   inkscape:version="0.91 r13725"
   sodipodi:docname="logo.svg">
  <metadata
     id="metadata20">
    <rdf:RDF>
      <cc:Work
         rdf:about="">
        <dc:format>image/svg+xml</dc:format>
        <dc:type
           rdf:resource="http://purl.org/dc/dcmitype/StillImage" />
      </cc:Work>
    </rdf:RDF>
  </metadata>
  <sodipodi:namedview
     pagecolor="#ffffff"
     bordercolor="#666666"
     borderopacity="1"
     objecttolerance="10"
     gridtolerance="10"
     guidetolerance="10"
     inkscape:pageopacity="0"
     inkscape:pageshadow="2"
     inkscape:window-width="1366"
     inkscape:window-height="704"
     id="namedview18"
     showgrid="false"
     inkscape:zoom="3.1052632"
     inkscape:cx="-11.370361"
     inkscape:cy="20.932207"
     inkscape:window-x="0"
     inkscape:window-y="27"
     inkscape:window-maximized="1"
     inkscape:current-layer="svg2" />
  <!-- Generator: Sketch 3.7.2 (28276) - http://www.bohemiancoding.com/sketch -->
  <title
     id="title4">Icarus Logo</title>
  <desc
     id="desc6">Created with Sketch.</desc>
  <defs
     id="defs8" />
  <rect
     style="fill:#f9f9f9;fill-rule:evenodd;stroke:#000000;stroke-width:1px;stroke-linecap:butt;stroke-linejoin:miter;stroke-opacity:1;opacity:0"
     id="rect4188"
     width="43.796612"
     height="43.796612"
     x="15.457627"
     y="15.457627" />
  <g
     transform="matrix(0.20452119,0,0,0.20452119,0.3435278,0.22754807)"
     id="g3">
    <path
       style="fill:#211d21"
       inkscape:connector-curvature="0"
       d="M 130.862,121.338 C 106.387,109.855 90.578,84.983 90.578,57.977 c 0,-23.564 11.602,-45.056 30.791,-57.978 l 0,57.983 c 0,2.968 2.409,5.375 5.375,5.375 l 67.616,0 c 2.961,0 5.374,-2.407 5.374,-5.375 l 0,-57.982 c 19.198,12.922 30.799,34.413 30.794,57.978 0,27 -15.812,51.877 -40.284,63.371 -1.04,0.491 -1.88,1.291 -2.42,2.262 -0.078,0.018 -0.153,0.066 -0.231,0.087 -0.406,0.107 -0.795,0.286 -1.191,0.435 -0.372,0.14 -0.76,0.247 -1.114,0.436 -0.736,0.375 -1.435,0.827 -2.07,1.365 l -41.604,35.134 c -4.682,3.957 -5.268,10.982 -1.318,15.665 l 12.342,14.62 c 0.029,0.031 0.06,0.073 0.086,0.104 l -18.782,0 0.006,-65.242 c 0.004,-2.092 -1.198,-3.99 -3.086,-4.877 z"
       id="path5" />
    <path
       style="fill:#211d21"
       inkscape:connector-curvature="0"
       d="m 100.933,283.301 c -0.113,0 -0.22,0.026 -0.327,0.031 l -0.03,-0.399 0.368,-19.497 27.822,0 26.99,0.357 -0.359,19.497 -54.464,0.011 z"
       id="path7" />
    <path
       style="fill:#211d21"
       inkscape:connector-curvature="0"
       d="m 100.576,252.318 0.368,-19.5 27.628,0 27.194,0.361 -0.365,19.502 -54.453,0.005 c -0.113,0 -0.225,0.026 -0.338,0.031 l -0.034,-0.399 z"
       id="path9" />
    <polygon
       style="fill:#211d21"
       points="100.576,221.693 100.943,202.198 128.572,202.198 155.76,202.559 155.396,222.066 128.572,222.066 "
       id="polygon11" />
    <polygon
       style="fill:#211d21"
       points="100.943,313.915 100.943,319.291 100.571,313.553 100.943,294.05 128.765,294.05 155.76,294.409 155.396,313.915 128.577,313.915 128.561,313.915 "
       id="polygon13" />
    <path
       style="fill:#211d21"
       inkscape:connector-curvature="0"
       d="m 160.545,369.496 c -14.669,0 -26.598,-11.938 -26.598,-26.604 l 0.005,-18.226 21.443,0 c 6.134,0 11.116,-4.981 11.116,-11.107 l 0,-19.139 c 0,-0.945 -0.154,-1.849 -0.375,-2.72 -0.066,-0.252 -0.152,-0.493 -0.231,-0.74 -0.216,-0.641 -0.48,-1.243 -0.801,-1.833 -0.076,-0.141 -0.107,-0.304 -0.194,-0.451 0.069,-0.109 0.098,-0.241 0.16,-0.361 0.349,-0.631 0.635,-1.286 0.855,-1.974 0.077,-0.227 0.145,-0.447 0.205,-0.678 0.226,-0.888 0.375,-1.79 0.375,-2.725 L 166.5,263.804 c 0,-0.945 -0.155,-1.849 -0.375,-2.719 -0.066,-0.252 -0.147,-0.483 -0.226,-0.735 -0.215,-0.651 -0.48,-1.26 -0.806,-1.854 -0.076,-0.131 -0.108,-0.299 -0.184,-0.424 0.082,-0.127 0.108,-0.28 0.176,-0.416 0.339,-0.614 0.619,-1.254 0.835,-1.927 0.082,-0.241 0.154,-0.472 0.221,-0.714 0.215,-0.87 0.365,-1.764 0.359,-2.688 l 0.005,-19.14 c 0,-0.945 -0.155,-1.847 -0.375,-2.719 -0.066,-0.252 -0.152,-0.493 -0.231,-0.745 -0.215,-0.651 -0.486,-1.26 -0.806,-1.854 -0.076,-0.13 -0.108,-0.293 -0.188,-0.429 0.081,-0.132 0.113,-0.288 0.188,-0.426 0.32,-0.587 0.591,-1.202 0.801,-1.852 0.079,-0.247 0.165,-0.483 0.231,-0.74 0.22,-0.878 0.375,-1.776 0.375,-2.721 l 0.005,-19.135 c 0,-0.745 -0.082,-1.475 -0.221,-2.177 -0.047,-0.243 -0.139,-0.462 -0.205,-0.693 -0.124,-0.462 -0.236,-0.914 -0.417,-1.345 -0.113,-0.268 -0.26,-0.509 -0.388,-0.766 -0.189,-0.367 -0.365,-0.746 -0.591,-1.092 -0.167,-0.252 -0.365,-0.478 -0.553,-0.714 -0.195,-0.252 -0.365,-0.524 -0.581,-0.756 0.299,-0.074 0.575,-0.221 0.869,-0.311 0.087,-0.026 0.173,-0.062 0.255,-0.089 0.575,-0.194 1.139,-0.395 1.677,-0.678 0.687,-0.351 1.344,-0.771 1.949,-1.28 l 18.852,-15.917 0,166.138 c 10e-4,14.667 -11.931,26.61 -26.606,26.61 z"
       id="path15" />
    <path
       style="fill:#211d21"
       inkscape:connector-curvature="0"
       d="m 235.818,313.538 c 0,0.21 -0.156,0.366 -0.361,0.366 l -29.104,-0.366 0,-140.548 c 0,-1.58 -0.696,-3.084 -1.904,-4.105 l -8.447,-7.129 c -0.005,-0.005 -0.426,-0.354 -0.436,-0.359 -0.504,-0.419 -1.055,-0.727 -1.637,-0.937 -0.263,-0.095 -0.553,-0.089 -0.82,-0.14 -0.325,-0.058 -0.649,-0.165 -0.986,-0.165 l 0,0 c -0.463,0 -0.912,0.118 -1.354,0.236 -0.158,0.042 -0.314,0.026 -0.463,0.079 -0.587,0.215 -1.149,0.527 -1.648,0.952 l -27.795,22.995 -12.305,-15.131 41.948,-35.186 c 0.977,0.307 1.659,0.409 2.646,0.144 0.135,-0.021 0.797,-0.058 0.938,-0.095 l 41.696,35.47 c -0.141,0.748 -0.136,1.491 0.031,2.231 l 0,141.688 z"
       id="path17" />
    <path
       style="fill:#211d21"
       inkscape:connector-curvature="0"
       d="m 278.911,313.553 c 0,0.163 -0.179,0.351 -0.34,0.351 l -21.43,-0.355 0.358,-111.351 21.417,0.361 -0.005,110.994 z"
       id="path19" />
  </g>
</svg>
